<svg width="512" height="512" viewBox="0 0 512 512" fill="none" xmlns="http://www.w3.org/2000/svg">
<path d="M122.179 133.336V133.113M389.81 133.336V133.113M255.995 378.664V378.441M255.995 222.546V222.323M255.995 467.875C236.355 467.879 217.263 461.402 201.68 449.449C186.097 437.496 174.894 420.735 169.808 401.765C164.723 382.795 166.039 362.678 173.553 344.532C181.067 326.387 194.359 311.229 211.367 301.408L211.345 299.802C196.828 291.409 184.97 279.094 177.132 264.27C169.294 249.446 165.792 232.712 167.029 215.989L162.123 213.134C151.067 218.659 138.984 221.826 126.639 222.435L122.179 222.546C104.317 222.543 86.8666 217.179 72.0878 207.146C57.3091 197.114 45.8822 182.876 39.2866 166.276C32.691 149.677 31.2304 131.479 35.094 114.04C38.9575 96.6002 47.9673 80.7223 60.9567 68.4613C73.9462 56.2003 90.3172 48.121 107.95 45.2693C125.583 42.4176 143.667 44.9249 159.859 52.4666C176.051 60.0083 189.606 72.237 198.769 87.5696C207.933 102.902 212.283 120.633 211.256 138.465L217.5 142.034C229.142 136.458 242.212 133.336 255.995 133.336C269.8 133.336 282.869 136.458 294.534 142.056L300.756 138.487L300.6 133.336C300.604 113.928 306.937 95.0509 318.639 79.5675C330.34 64.0841 346.771 52.8389 365.441 47.5373C384.11 42.2358 404 43.1671 422.092 50.1899C440.185 57.2128 455.493 69.9442 465.697 86.4533C475.9 102.962 480.442 122.348 478.632 141.672C476.823 160.995 468.762 179.201 455.671 193.529C442.58 207.857 425.174 217.525 406.092 221.067C387.01 224.609 367.294 221.832 349.933 213.157L344.982 216.034C346.208 232.752 342.7 249.477 334.858 264.293C327.016 279.109 315.159 291.415 300.644 299.802L300.6 301.386C313.51 308.84 324.346 319.409 332.118 332.13C339.891 344.85 344.352 359.315 345.094 374.204L345.205 378.664C345.205 402.325 335.806 425.016 319.076 441.746C302.346 458.476 279.655 467.875 255.995 467.875Z" stroke="#000000" stroke-width="42.6667" stroke-linecap="round" stroke-linejoin="round"/>
</svg>

